<?xml version="1.0" encoding="UTF-8"?>
<svg xmlns="http://www.w3.org/2000/svg" xmlns:xlink="http://www.w3.org/1999/xlink" width="px" height="px" viewBox="0 0 36 36" version="1.1">
<g id="surface1">
<path style=" stroke:none;fill-rule:nonzero;fill:rgb(100%,82.745098%,71.372549%);fill-opacity:1;" d="M 18.957031 10.179688 C 18.957031 10.179688 19.269531 11.394531 17.921875 11.707031 C 16.738281 11.988281 16.492188 10.792969 16.492188 10.792969 C 16.492188 10.792969 16.230469 9.589844 15.691406 9.472656 C 15.484375 9.425781 15.441406 9.476562 14.851562 9.390625 C 13.847656 9.238281 13.585938 8.753906 13.5 8.3125 C 13.472656 8.175781 13.460938 8.042969 13.453125 7.929688 C 13.4375 7.769531 13.425781 7.640625 13.367188 7.566406 C 13.324219 7.507812 12.699219 7.265625 12.78125 6.964844 C 12.894531 6.566406 13.632812 6.25 13.601562 5.878906 C 13.605469 5.78125 13.542969 5.46875 13.535156 5.429688 C 13.476562 5.074219 13.496094 4.578125 13.605469 4.089844 C 13.917969 2.738281 14.796875 1.71875 16.308594 1.574219 C 17.660156 1.453125 19.207031 2.457031 19.839844 3.660156 C 20.246094 4.429688 19.65625 6.417969 18.964844 7.46875 C 18.066406 8.84375 18.957031 10.179688 18.957031 10.179688 Z M 18.957031 10.179688 "/>
<path style=" stroke:none;fill-rule:nonzero;fill:rgb(47.45098%,33.333333%,28.235294%);fill-opacity:1;" d="M 14.199219 8.160156 C 13.984375 8.300781 13.742188 8.339844 13.5 8.3125 C 13.472656 8.175781 13.460938 8.042969 13.453125 7.929688 C 13.644531 7.96875 13.886719 7.957031 14.027344 7.910156 C 14.292969 7.820312 14.433594 8.015625 14.199219 8.160156 Z M 14.199219 8.160156 "/>
<path style=" stroke:none;fill-rule:nonzero;fill:rgb(25.098039%,25.098039%,25.098039%);fill-opacity:1;" d="M 14.992188 6.171875 C 15.003906 5.898438 14.867188 5.671875 14.691406 5.664062 C 14.515625 5.65625 14.363281 5.875 14.351562 6.148438 C 14.34375 6.421875 14.476562 6.648438 14.652344 6.652344 C 14.832031 6.660156 14.984375 6.445312 14.992188 6.171875 Z M 14.992188 6.171875 "/>
<path style=" stroke:none;fill-rule:nonzero;fill:rgb(42.745098%,29.803922%,25.490196%);fill-opacity:1;" d="M 14.496094 5.46875 C 14.1875 5.570312 14.105469 5.367188 14.207031 5.199219 C 14.277344 5.074219 14.464844 4.964844 14.832031 5.023438 C 15.179688 5.078125 15.328125 5.273438 15.421875 5.390625 C 15.519531 5.507812 15.515625 5.628906 15.433594 5.640625 C 15.324219 5.664062 14.878906 5.347656 14.496094 5.46875 Z M 14.496094 5.46875 "/>
<path style=" stroke:none;fill-rule:nonzero;fill:rgb(76.078431%,60.784314%,0%);fill-opacity:1;" d="M 27.804688 23.242188 L 22.582031 24.285156 L 21.128906 19.261719 L 17.632812 21.601562 L 20.179688 26.722656 L 20.191406 26.714844 C 20.40625 27.09375 20.757812 27.375 21.171875 27.5 C 21.300781 27.539062 21.425781 27.5625 21.554688 27.570312 L 21.554688 27.578125 L 21.597656 27.574219 C 21.753906 27.582031 21.910156 27.570312 22.058594 27.539062 L 28.503906 25.089844 Z M 27.804688 23.242188 "/>
<path style=" stroke:none;fill-rule:nonzero;fill:rgb(35.294118%,92.941176%,30.980392%);fill-opacity:1;" d="M 28.921875 22.171875 C 28.832031 22.019531 28.640625 21.972656 28.488281 22.0625 L 27.820312 22.460938 C 27.367188 22.730469 27.125 23.5 27.125 23.5 L 28.113281 25.160156 L 29.5 26.363281 C 29.859375 26.644531 30.351562 26.671875 30.742188 26.445312 L 31.042969 26.269531 C 31.171875 26.191406 31.21875 26.019531 31.140625 25.886719 Z M 28.921875 22.171875 "/>
<path style=" stroke:none;fill-rule:nonzero;fill:rgb(100%,80%,0%);fill-opacity:1;" d="M 12.617188 32.007812 L 15.824219 25.875 C 15.824219 25.875 19.824219 22.566406 20.171875 22.335938 C 21.472656 21.460938 21.730469 20.25 21.601562 19.371094 C 21.5 18.6875 21.046875 17.777344 21.046875 17.777344 L 15.804688 19.339844 L 16.050781 20.304688 C 16.050781 20.304688 14.445312 22.378906 14.070312 22.8125 C 13.695312 23.246094 13.054688 23.851562 12.558594 25.558594 C 12.03125 27.355469 10.710938 31.695312 10.710938 31.695312 Z M 12.617188 32.007812 "/>
<path style=" stroke:none;fill-rule:nonzero;fill:rgb(35.294118%,92.941176%,30.980392%);fill-opacity:1;" d="M 12.613281 33.914062 C 12.789062 33.945312 12.953125 33.824219 12.980469 33.65625 L 13.101562 32.886719 C 13.191406 32.367188 12.761719 31.6875 12.761719 31.6875 L 10.851562 31.371094 L 9.035156 31.65625 C 8.59375 31.75 8.25 32.105469 8.175781 32.550781 L 8.117188 32.898438 C 8.089844 33.050781 8.191406 33.191406 8.34375 33.21875 Z M 12.613281 33.914062 "/>
<path style=" stroke:none;fill-rule:nonzero;fill:rgb(100%,82.745098%,71.372549%);fill-opacity:1;" d="M 14.078125 13.785156 L 11.558594 11.867188 L 10.332031 13.179688 L 12.875 15.644531 L 12.878906 15.640625 C 13.375 16.160156 14.542969 16.515625 15.515625 15.632812 C 16.4375 14.789062 17.574219 13 17.574219 13 L 15.605469 11.417969 Z M 14.078125 13.785156 "/>
<path style=" stroke:none;fill-rule:nonzero;fill:rgb(56.862745%,34.901961%,34.901961%);fill-opacity:1;" d="M 14.136719 12.640625 C 14.859375 14.660156 16.632812 14.722656 16.632812 14.722656 L 18.046875 12.304688 C 18.226562 11.992188 18.277344 11.621094 18.1875 11.269531 C 18.09375 10.917969 17.867188 10.621094 17.554688 10.4375 L 17.320312 10.300781 C 16.671875 9.917969 16.121094 10.105469 15.246094 11.382812 C 14.460938 12.53125 14.136719 12.640625 14.136719 12.640625 Z M 14.136719 12.640625 "/>
<path style=" stroke:none;fill-rule:nonzero;fill:rgb(56.862745%,34.901961%,34.901961%);fill-opacity:1;" d="M 15.804688 19.339844 C 15.105469 16.570312 14.976562 14.628906 15.132812 13.070312 C 15.335938 11.105469 16.273438 9.933594 17.324219 9.5625 C 18.625 9.105469 19.523438 9.765625 19.886719 10.941406 C 20.132812 11.742188 20.085938 12.359375 20.066406 12.742188 C 20.066406 12.742188 19.886719 14.839844 21.558594 17.472656 C 21.558594 17.472656 21.398438 18.613281 18.730469 19.242188 C 17.542969 19.519531 15.804688 19.339844 15.804688 19.339844 Z M 15.804688 19.339844 "/>
<path style=" stroke:none;fill-rule:nonzero;fill:rgb(100%,82.745098%,71.372549%);fill-opacity:1;" d="M 20.097656 16.765625 C 20.097656 16.765625 18.878906 16.15625 18.863281 16.152344 C 18.828125 16.132812 18.785156 16.121094 18.746094 16.117188 C 18.703125 16.113281 18.664062 16.117188 18.621094 16.128906 C 18.582031 16.140625 18.546875 16.160156 18.515625 16.1875 C 18.480469 16.210938 18.457031 16.246094 18.4375 16.28125 L 18.175781 16.769531 C 18.132812 16.851562 18.128906 16.941406 18.15625 17.023438 C 18.015625 17.105469 17.671875 17.320312 17.597656 17.460938 C 17.511719 17.625 17.609375 17.796875 17.699219 17.835938 C 17.804688 17.882812 17.851562 18.027344 17.820312 18.136719 C 17.785156 18.25 17.789062 18.367188 17.84375 18.457031 C 17.894531 18.550781 17.964844 18.585938 18.09375 18.613281 C 18.15625 18.625 18.21875 18.703125 18.21875 18.765625 C 18.214844 18.859375 18.214844 19.027344 18.265625 19.089844 C 18.359375 19.214844 18.515625 19.175781 18.597656 19.269531 C 18.628906 19.304688 18.632812 19.464844 18.699219 19.523438 C 18.890625 19.703125 19.511719 19.371094 19.511719 19.371094 L 20.695312 18.273438 Z M 20.097656 16.765625 "/>
<path style=" stroke:none;fill-rule:nonzero;fill:rgb(100%,82.745098%,71.372549%);fill-opacity:1;" d="M 19.703125 16.574219 L 20.457031 16.785156 L 20.96875 18.207031 C 20.96875 18.207031 19.363281 19.785156 19.089844 19.34375 C 19.003906 19.207031 19.164062 19.058594 18.929688 18.96875 C 18.765625 18.910156 18.640625 18.828125 18.6875 18.574219 C 18.707031 18.476562 18.632812 18.359375 18.566406 18.351562 C 18.261719 18.316406 18.183594 18.144531 18.273438 17.933594 C 18.324219 17.8125 18.3125 17.613281 18.140625 17.523438 C 18.078125 17.492188 17.992188 17.351562 18.03125 17.15625 C 18.09375 16.851562 19.703125 16.574219 19.703125 16.574219 Z M 19.703125 16.574219 "/>
<path style=" stroke:none;fill-rule:nonzero;fill:rgb(100%,82.745098%,71.372549%);fill-opacity:1;" d="M 20.738281 18.382812 L 23.519531 16.507812 L 23.519531 16.503906 C 23.851562 16.171875 23.972656 15.941406 24.039062 15.664062 C 24.253906 14.789062 23.683594 14.183594 23.683594 14.183594 L 21.109375 11.304688 L 19.523438 12.945312 L 21.785156 15.207031 L 20.09375 16.769531 Z M 20.738281 18.382812 "/>
<path style=" stroke:none;fill-rule:nonzero;fill:rgb(56.862745%,34.901961%,34.901961%);fill-opacity:1;" d="M 20.792969 14.628906 C 20.792969 14.628906 22.496094 12.941406 22.453125 11.648438 C 22.453125 11.648438 21.640625 11.644531 20.429688 10.730469 C 19.667969 10.15625 18.65625 10.109375 18.246094 10.777344 C 17.882812 11.367188 17.945312 12.097656 18.640625 12.933594 C 19.164062 13.554688 20.792969 14.628906 20.792969 14.628906 Z M 20.792969 14.628906 "/>
<path style=" stroke:none;fill-rule:nonzero;fill:rgb(100%,82.745098%,71.372549%);fill-opacity:1;" d="M 10.207031 12.203125 L 10.199219 12.210938 C 10.078125 12.359375 9.867188 12.402344 9.734375 12.300781 L 9.1875 11.886719 C 9.050781 11.785156 9.039062 11.578125 9.160156 11.425781 C 9.28125 11.273438 9.488281 11.230469 9.625 11.335938 L 10.171875 11.746094 C 10.3125 11.851562 10.332031 12.050781 10.207031 12.203125 Z M 10.207031 12.203125 "/>
<path style=" stroke:none;fill-rule:nonzero;fill:rgb(100%,82.745098%,71.372549%);fill-opacity:1;" d="M 10.667969 10.472656 C 10.675781 10.480469 10.679688 10.484375 10.679688 10.484375 C 10.929688 10.753906 11.152344 10.972656 11.246094 11.035156 C 11.5 11.195312 11.738281 11.394531 11.882812 11.679688 C 12.15625 12.210938 11.808594 12.734375 11.398438 13.121094 C 10.992188 13.507812 10.738281 13.59375 10.296875 13.519531 C 9.9375 13.460938 9.175781 12.652344 9.175781 12.652344 C 9.09375 12.5625 9.003906 12.464844 8.914062 12.375 C 8.882812 12.339844 8.84375 12.308594 8.8125 12.269531 L 8.808594 12.269531 C 8.703125 12.167969 8.691406 12.03125 8.804688 11.890625 C 8.957031 11.707031 9.105469 11.800781 9.125 11.816406 C 9.195312 11.882812 9.273438 11.96875 9.328125 12.011719 C 9.492188 12.132812 9.582031 12.15625 9.582031 12.15625 L 10.351562 11.175781 L 10.089844 10.828125 C 10.089844 10.828125 10.089844 10.824219 10.078125 10.8125 C 10.050781 10.769531 9.941406 10.609375 10.148438 10.421875 C 10.382812 10.222656 10.621094 10.429688 10.667969 10.472656 Z M 10.667969 10.472656 "/>
<path style=" stroke:none;fill-rule:nonzero;fill:rgb(100%,82.745098%,71.372549%);fill-opacity:1;" d="M 10.640625 11.800781 C 10.507812 11.945312 10.296875 11.96875 10.171875 11.855469 L 9.585938 11.335938 C 9.460938 11.222656 9.46875 11.015625 9.601562 10.871094 C 9.738281 10.726562 9.949219 10.703125 10.074219 10.816406 L 10.65625 11.335938 C 10.78125 11.453125 10.773438 11.65625 10.640625 11.800781 Z M 10.640625 11.800781 "/>
<path style=" stroke:none;fill-rule:nonzero;fill:rgb(100%,82.745098%,71.372549%);fill-opacity:1;" d="M 9.886719 11.886719 C 10.011719 11.703125 10.167969 11.476562 10.339844 11.285156 C 10.363281 11.253906 10.386719 11.230469 10.410156 11.203125 C 10.648438 10.960938 10.957031 10.917969 11.34375 11.128906 C 11.359375 11.136719 11.371094 11.144531 11.386719 11.152344 C 11.40625 11.164062 11.429688 11.179688 11.457031 11.195312 C 11.492188 11.21875 11.527344 11.242188 11.558594 11.265625 C 11.675781 11.351562 11.761719 11.457031 11.816406 11.554688 C 12.027344 11.898438 11.96875 12.21875 11.96875 12.21875 C 11.96875 12.21875 11.71875 12.972656 11.355469 12.84375 C 10.988281 12.710938 10.800781 12.1875 10.800781 12.1875 L 10.894531 11.8125 C 10.785156 11.800781 10.691406 11.847656 10.5625 11.996094 C 10.519531 12.042969 10.472656 12.101562 10.414062 12.171875 C 10.410156 12.179688 10.339844 12.269531 10.332031 12.273438 C 10.25 12.367188 10.152344 12.410156 10.039062 12.402344 C 9.890625 12.394531 9.761719 12.25 9.691406 12.195312 C 9.746094 12.128906 9.816406 11.984375 9.886719 11.886719 Z M 9.886719 11.886719 "/>
<path style=" stroke:none;fill-rule:nonzero;fill:rgb(100%,82.745098%,71.372549%);fill-opacity:1;" d="M 9.71875 12.753906 L 10.175781 12.378906 L 10.417969 12.105469 L 10.734375 11.828125 L 10.84375 11.878906 L 10.773438 12.238281 L 11.011719 12.589844 L 11.160156 12.71875 L 10.386719 13.265625 Z M 9.71875 12.753906 "/>
<path style=" stroke:none;fill-rule:nonzero;fill:rgb(100%,82.745098%,71.372549%);fill-opacity:1;" d="M 9.75 12.550781 C 9.742188 12.722656 9.574219 12.820312 9.585938 12.820312 C 9.632812 12.84375 9.867188 12.78125 10.128906 12.492188 C 10.332031 12.261719 10.527344 11.96875 10.761719 11.898438 C 10.683594 12.296875 10.859375 12.601562 11.183594 12.722656 C 10.933594 12.492188 10.734375 12.097656 10.960938 11.78125 C 10.773438 11.667969 10.558594 11.855469 10.449219 11.988281 C 10.320312 12.140625 10.210938 12.378906 9.976562 12.347656 C 9.816406 12.328125 9.757812 12.226562 9.8125 12.074219 C 9.953125 11.703125 10.28125 11.324219 10.621094 11.113281 C 10.742188 11.035156 10.996094 11.015625 11.324219 11.082031 C 11.085938 10.894531 10.675781 10.953125 10.523438 11.027344 C 10.390625 11.089844 10.421875 11.0625 10.304688 10.988281 C 10.246094 10.949219 10.1875 10.910156 10.128906 10.875 C 10.179688 10.953125 10.261719 11.046875 10.277344 11.140625 C 10.292969 11.253906 10.183594 11.355469 10.117188 11.4375 C 9.941406 11.644531 9.789062 11.464844 9.609375 11.351562 C 9.730469 11.496094 9.757812 11.539062 9.820312 11.640625 C 9.902344 11.777344 9.777344 11.890625 9.6875 12 C 9.507812 12.21875 9.128906 11.769531 9.105469 11.796875 C 9.074219 11.832031 9.757812 12.359375 9.75 12.550781 Z M 9.75 12.550781 "/>
<path style=" stroke:none;fill-rule:nonzero;fill:rgb(0%,6.27451%,13.333333%);fill-opacity:1;" d="M 20.695312 3.605469 C 20.34375 2.667969 19.59375 2.371094 19.347656 2.296875 C 19.238281 1.957031 18.679688 0.667969 16.554688 0.976562 C 16.035156 1.050781 15.65625 1.289062 15.320312 1.5 C 15.175781 1.59375 15.039062 1.679688 14.910156 1.734375 C 14.808594 1.78125 14.625 1.824219 14.476562 1.773438 C 14.136719 1.652344 14.257812 1.140625 14.257812 1.140625 C 14.257812 1.140625 13.003906 1.363281 13.519531 2.582031 C 13.097656 2.757812 12.894531 3.199219 12.8125 3.617188 C 12.703125 4.183594 12.972656 4.734375 13.515625 4.988281 C 13.515625 4.988281 13.421875 4.070312 14.746094 4.148438 C 15.15625 4.171875 15.585938 4.242188 15.96875 4.097656 C 16.117188 4.042969 16.253906 3.953125 16.398438 3.882812 L 16.449219 3.882812 C 16.945312 4.164062 16.261719 5.332031 16.808594 6.035156 C 16.914062 6.171875 17.011719 6.125 17.011719 6.125 L 17.242188 5.800781 C 17.414062 5.578125 17.574219 5.386719 17.785156 5.4375 C 18.40625 5.585938 18.273438 6.695312 17.527344 6.929688 C 17.453125 6.953125 17.601562 8.199219 19.140625 8.226562 C 19.933594 8.242188 20.226562 7.589844 20.226562 7.589844 C 20.226562 7.589844 19.882812 7.667969 19.816406 7.378906 C 19.78125 7.226562 19.921875 7.027344 20.175781 6.8125 C 20.898438 6.1875 20.65625 5.453125 20.554688 5.222656 C 20.660156 5.015625 20.972656 4.339844 20.695312 3.605469 Z M 20.695312 3.605469 "/>
<path style=" stroke:none;fill-rule:nonzero;fill:rgb(0%,6.27451%,13.333333%);fill-opacity:1;" d="M 20.546875 5.226562 C 20.5625 5.199219 20.316406 5.785156 19.304688 5.671875 C 18.890625 5.660156 18.289062 6.65625 18.886719 7.332031 C 19.414062 7.929688 20.21875 7.589844 20.21875 7.589844 C 20.21875 7.589844 20.109375 7.621094 19.949219 7.5625 C 19.84375 7.523438 19.8125 7.386719 19.8125 7.382812 C 19.773438 7.234375 19.914062 7.035156 20.167969 6.816406 C 20.894531 6.1875 20.648438 5.453125 20.546875 5.226562 Z M 20.546875 5.226562 "/>
<path style=" stroke:none;fill-rule:nonzero;fill:rgb(0%,6.27451%,13.333333%);fill-opacity:1;" d="M 20.695312 3.605469 C 20.511719 3.109375 20.160156 2.691406 19.691406 2.445312 C 19.625 2.40625 19.460938 2.324219 19.34375 2.300781 C 19.394531 2.519531 19.386719 2.753906 19.289062 2.988281 C 19.285156 3 19.171875 3.351562 18.859375 3.632812 C 19.078125 3.945312 19.183594 4.324219 19.28125 4.695312 C 19.371094 5.015625 19.453125 5.371094 19.304688 5.671875 C 19.5 5.664062 19.808594 5.722656 20.152344 5.578125 C 20.480469 5.4375 20.65625 5.0625 20.746094 4.726562 C 20.835938 4.355469 20.832031 3.964844 20.695312 3.605469 Z M 20.695312 3.605469 "/>
<path style=" stroke:none;fill-rule:nonzero;fill:rgb(0%,6.27451%,13.333333%);fill-opacity:1;" d="M 19.285156 2.988281 C 19.542969 2.367188 19.207031 1.78125 18.691406 1.382812 C 18.085938 0.917969 17.28125 0.867188 16.554688 0.976562 C 16.035156 1.050781 15.65625 1.289062 15.320312 1.5 C 15.175781 1.59375 15.039062 1.679688 14.910156 1.734375 C 14.808594 1.78125 14.625 1.824219 14.476562 1.773438 C 14.136719 1.652344 14.257812 1.140625 14.257812 1.140625 C 14.257812 1.140625 13.003906 1.363281 13.519531 2.582031 C 13.097656 2.757812 12.894531 3.199219 12.8125 3.617188 C 12.703125 4.183594 12.972656 4.734375 13.515625 4.988281 C 13.515625 4.988281 13.421875 4.070312 14.746094 4.148438 C 15.15625 4.171875 15.585938 4.242188 15.96875 4.097656 C 16.308594 3.96875 16.429688 3.789062 16.804688 3.816406 C 17.210938 3.847656 17.753906 4.011719 18.171875 3.953125 C 19.019531 3.839844 19.28125 3 19.285156 2.988281 Z M 19.285156 2.988281 "/>
<path style=" stroke:none;fill-rule:nonzero;fill:rgb(0%,6.27451%,13.333333%);fill-opacity:1;" d="M 18.886719 7.332031 C 18.617188 7.035156 18.554688 6.558594 18.132812 6.292969 C 18.046875 6.570312 17.84375 6.832031 17.523438 6.929688 C 17.453125 6.953125 17.601562 8.199219 19.136719 8.226562 C 19.929688 8.242188 20.222656 7.589844 20.222656 7.589844 C 20.222656 7.589844 19.425781 7.925781 18.886719 7.332031 Z M 18.886719 7.332031 "/>
</g>
</svg>
