<?xml version="1.0" encoding="UTF-8"?>
<svg xmlns="http://www.w3.org/2000/svg" xmlns:xlink="http://www.w3.org/1999/xlink" width="px" height="px" viewBox="0 0 36 36" version="1.1">
<defs>
<radialGradient id="radial0" gradientUnits="userSpaceOnUse" cx="0" cy="0" fx="0" fy="0" r="1" gradientTransform="matrix(2.14227,0.594296,-0.376858,1.396465,19.082268,6.91865)">
<stop offset="0.45" style="stop-color:rgb(42.745098%,29.803922%,25.490196%);stop-opacity:0;"/>
<stop offset="1" style="stop-color:rgb(42.745098%,29.803922%,25.490196%);stop-opacity:1;"/>
</radialGradient>
</defs>
<g id="surface1">
<path style=" stroke:none;fill-rule:nonzero;fill:rgb(100%,82.745098%,71.372549%);fill-opacity:1;" d="M 18.941406 10.179688 C 18.941406 10.179688 19.253906 11.394531 17.921875 11.707031 C 16.757812 11.988281 16.511719 10.792969 16.511719 10.792969 C 16.511719 10.792969 16.253906 9.589844 15.722656 9.472656 C 15.519531 9.425781 15.476562 9.476562 14.894531 9.390625 C 13.90625 9.238281 13.644531 8.753906 13.5625 8.3125 C 13.535156 8.175781 13.523438 8.042969 13.515625 7.929688 C 13.5 7.769531 13.488281 7.640625 13.429688 7.566406 C 13.386719 7.507812 12.769531 7.265625 12.855469 6.964844 C 12.964844 6.566406 13.691406 6.25 13.660156 5.878906 C 13.664062 5.78125 13.601562 5.46875 13.59375 5.429688 C 13.535156 5.074219 13.554688 4.578125 13.667969 4.089844 C 13.972656 2.738281 14.839844 1.71875 16.332031 1.574219 C 17.664062 1.453125 19.191406 2.457031 19.8125 3.660156 C 20.214844 4.429688 19.632812 6.417969 18.953125 7.46875 C 18.0625 8.84375 18.941406 10.179688 18.941406 10.179688 Z M 18.941406 10.179688 "/>
<path style=" stroke:none;fill-rule:nonzero;fill:rgb(47.45098%,33.333333%,28.235294%);fill-opacity:1;" d="M 14.25 8.160156 C 14.039062 8.300781 13.800781 8.339844 13.5625 8.3125 C 13.535156 8.175781 13.523438 8.042969 13.515625 7.929688 C 13.703125 7.96875 13.941406 7.957031 14.082031 7.910156 C 14.34375 7.820312 14.484375 8.015625 14.25 8.160156 Z M 14.25 8.160156 "/>
<path style=" stroke:none;fill-rule:nonzero;fill:rgb(25.098039%,25.098039%,25.098039%);fill-opacity:1;" d="M 15.035156 6.171875 C 15.042969 5.898438 14.910156 5.671875 14.738281 5.664062 C 14.5625 5.65625 14.414062 5.875 14.402344 6.148438 C 14.390625 6.421875 14.523438 6.648438 14.699219 6.652344 C 14.875 6.660156 15.023438 6.445312 15.035156 6.171875 Z M 15.035156 6.171875 "/>
<path style=" stroke:none;fill-rule:nonzero;fill:rgb(42.745098%,29.803922%,25.490196%);fill-opacity:1;" d="M 14.542969 5.46875 C 14.238281 5.570312 14.15625 5.367188 14.257812 5.199219 C 14.328125 5.074219 14.511719 4.964844 14.875 5.023438 C 15.21875 5.078125 15.363281 5.273438 15.460938 5.390625 C 15.554688 5.507812 15.546875 5.628906 15.46875 5.640625 C 15.363281 5.664062 14.921875 5.347656 14.542969 5.46875 Z M 14.542969 5.46875 "/>
<path style=" stroke:none;fill-rule:nonzero;fill:rgb(0%,54.117647%,78.039216%);fill-opacity:1;" d="M 27.671875 23.242188 L 22.519531 24.285156 L 21.085938 19.261719 L 17.636719 21.601562 L 20.148438 26.722656 L 20.160156 26.714844 C 20.371094 27.09375 20.71875 27.375 21.128906 27.5 C 21.253906 27.539062 21.378906 27.5625 21.507812 27.570312 L 21.507812 27.578125 L 21.546875 27.574219 C 21.703125 27.582031 21.855469 27.570312 22.003906 27.539062 L 28.359375 25.089844 Z M 27.671875 23.242188 "/>
<path style=" stroke:none;fill-rule:nonzero;fill:rgb(44.705882%,80.392157%,90.980392%);fill-opacity:1;" d="M 28.773438 22.171875 C 28.683594 22.019531 28.492188 21.972656 28.34375 22.0625 L 27.6875 22.460938 C 27.238281 22.730469 27 23.5 27 23.5 L 27.976562 25.160156 L 29.34375 26.363281 C 29.695312 26.644531 30.179688 26.671875 30.566406 26.445312 L 30.863281 26.269531 C 30.992188 26.191406 31.039062 26.019531 30.960938 25.886719 Z M 28.773438 22.171875 "/>
<path style=" stroke:none;fill-rule:nonzero;fill:rgb(0%,69.411765%,100%);fill-opacity:1;" d="M 12.691406 32.007812 L 15.855469 25.875 C 15.855469 25.875 19.796875 22.566406 20.140625 22.335938 C 21.425781 21.460938 21.679688 20.25 21.554688 19.371094 C 21.453125 18.6875 21.007812 17.777344 21.007812 17.777344 L 15.832031 19.339844 L 16.078125 20.304688 C 16.078125 20.304688 14.492188 22.378906 14.125 22.8125 C 13.753906 23.246094 13.125 23.851562 12.632812 25.558594 C 12.113281 27.355469 10.8125 31.695312 10.8125 31.695312 Z M 12.691406 32.007812 "/>
<path style=" stroke:none;fill-rule:nonzero;fill:rgb(44.705882%,80.392157%,90.980392%);fill-opacity:1;" d="M 12.6875 33.914062 C 12.859375 33.945312 13.019531 33.824219 13.046875 33.65625 L 13.171875 32.886719 C 13.257812 32.367188 12.832031 31.6875 12.832031 31.6875 L 10.949219 31.371094 L 9.160156 31.65625 C 8.722656 31.75 8.386719 32.105469 8.308594 32.550781 L 8.253906 32.898438 C 8.226562 33.050781 8.328125 33.191406 8.476562 33.21875 Z M 12.6875 33.914062 "/>
<path style=" stroke:none;fill-rule:nonzero;fill:rgb(100%,82.745098%,71.372549%);fill-opacity:1;" d="M 14.132812 13.785156 L 11.648438 11.867188 L 10.4375 13.179688 L 12.945312 15.644531 L 12.949219 15.640625 C 13.441406 16.160156 14.589844 16.515625 15.546875 15.632812 C 16.457031 14.789062 17.582031 13 17.582031 13 L 15.636719 11.417969 Z M 14.132812 13.785156 "/>
<path style=" stroke:none;fill-rule:nonzero;fill:rgb(34.901961%,48.235294%,56.862745%);fill-opacity:1;" d="M 14.191406 12.640625 C 14.902344 14.660156 16.652344 14.722656 16.652344 14.722656 L 18.042969 12.304688 C 18.222656 11.992188 18.273438 11.621094 18.183594 11.269531 C 18.09375 10.917969 17.871094 10.621094 17.5625 10.4375 L 17.332031 10.300781 C 16.691406 9.917969 16.148438 10.105469 15.285156 11.382812 C 14.511719 12.53125 14.191406 12.640625 14.191406 12.640625 Z M 14.191406 12.640625 "/>
<path style=" stroke:none;fill-rule:nonzero;fill:rgb(34.901961%,48.235294%,56.862745%);fill-opacity:1;" d="M 15.832031 19.339844 C 15.144531 16.570312 15.019531 14.628906 15.171875 13.070312 C 15.371094 11.105469 16.296875 9.933594 17.335938 9.5625 C 18.617188 9.105469 19.503906 9.765625 19.863281 10.941406 C 20.105469 11.742188 20.058594 12.359375 20.039062 12.742188 C 20.039062 12.742188 19.863281 14.839844 21.507812 17.472656 C 21.507812 17.472656 21.351562 18.613281 18.722656 19.242188 C 17.550781 19.519531 15.832031 19.339844 15.832031 19.339844 Z M 15.832031 19.339844 "/>
<path style=" stroke:none;fill-rule:nonzero;fill:rgb(100%,82.745098%,71.372549%);fill-opacity:1;" d="M 20.070312 16.765625 C 20.070312 16.765625 18.867188 16.15625 18.851562 16.152344 C 18.816406 16.132812 18.777344 16.121094 18.734375 16.117188 C 18.695312 16.113281 18.652344 16.117188 18.613281 16.128906 C 18.574219 16.140625 18.539062 16.160156 18.507812 16.1875 C 18.476562 16.210938 18.449219 16.246094 18.429688 16.28125 L 18.171875 16.769531 C 18.128906 16.851562 18.128906 16.941406 18.15625 17.023438 C 18.015625 17.105469 17.675781 17.320312 17.601562 17.460938 C 17.519531 17.625 17.613281 17.796875 17.703125 17.835938 C 17.804688 17.882812 17.851562 18.027344 17.824219 18.136719 C 17.789062 18.25 17.792969 18.367188 17.84375 18.457031 C 17.898438 18.550781 17.964844 18.585938 18.089844 18.613281 C 18.152344 18.625 18.214844 18.703125 18.214844 18.765625 C 18.214844 18.859375 18.214844 19.027344 18.261719 19.089844 C 18.355469 19.214844 18.511719 19.175781 18.589844 19.269531 C 18.621094 19.304688 18.625 19.464844 18.6875 19.523438 C 18.875 19.703125 19.488281 19.371094 19.488281 19.371094 L 20.660156 18.273438 Z M 20.070312 16.765625 "/>
<path style=" stroke:none;fill-rule:nonzero;fill:rgb(100%,82.745098%,71.372549%);fill-opacity:1;" d="M 19.679688 16.574219 L 20.421875 16.785156 L 20.929688 18.207031 C 20.929688 18.207031 19.34375 19.785156 19.078125 19.34375 C 18.992188 19.207031 19.148438 19.058594 18.917969 18.96875 C 18.753906 18.910156 18.632812 18.828125 18.679688 18.574219 C 18.699219 18.476562 18.625 18.359375 18.558594 18.351562 C 18.257812 18.316406 18.179688 18.144531 18.269531 17.933594 C 18.320312 17.8125 18.308594 17.613281 18.140625 17.523438 C 18.078125 17.492188 17.992188 17.351562 18.03125 17.15625 C 18.09375 16.851562 19.679688 16.574219 19.679688 16.574219 Z M 19.679688 16.574219 "/>
<path style=" stroke:none;fill-rule:nonzero;fill:rgb(100%,82.745098%,71.372549%);fill-opacity:1;" d="M 20.699219 18.382812 L 23.441406 16.507812 L 23.441406 16.503906 C 23.773438 16.171875 23.890625 15.941406 23.957031 15.664062 C 24.167969 14.789062 23.605469 14.183594 23.605469 14.183594 L 21.066406 11.304688 L 19.503906 12.945312 L 21.734375 15.207031 L 20.066406 16.769531 Z M 20.699219 18.382812 "/>
<path style=" stroke:none;fill-rule:nonzero;fill:rgb(34.901961%,48.235294%,56.862745%);fill-opacity:1;" d="M 20.753906 14.628906 C 20.753906 14.628906 22.4375 12.941406 22.390625 11.648438 C 22.390625 11.648438 21.589844 11.644531 20.398438 10.730469 C 19.644531 10.15625 18.644531 10.109375 18.242188 10.777344 C 17.886719 11.367188 17.945312 12.097656 18.632812 12.933594 C 19.148438 13.554688 20.753906 14.628906 20.753906 14.628906 Z M 20.753906 14.628906 "/>
<path style=" stroke:none;fill-rule:nonzero;fill:rgb(100%,82.745098%,71.372549%);fill-opacity:1;" d="M 10.3125 12.203125 L 10.304688 12.210938 C 10.1875 12.359375 9.980469 12.402344 9.847656 12.300781 L 9.304688 11.886719 C 9.171875 11.785156 9.160156 11.578125 9.28125 11.425781 C 9.402344 11.273438 9.605469 11.230469 9.738281 11.335938 L 10.28125 11.746094 C 10.414062 11.851562 10.433594 12.050781 10.3125 12.203125 Z M 10.3125 12.203125 "/>
<path style=" stroke:none;fill-rule:nonzero;fill:rgb(100%,82.745098%,71.372549%);fill-opacity:1;" d="M 10.769531 10.472656 C 10.777344 10.480469 10.78125 10.484375 10.78125 10.484375 C 11.027344 10.753906 11.246094 10.972656 11.339844 11.035156 C 11.589844 11.195312 11.824219 11.394531 11.964844 11.679688 C 12.234375 12.210938 11.890625 12.734375 11.488281 13.121094 C 11.089844 13.507812 10.835938 13.59375 10.402344 13.519531 C 10.046875 13.460938 9.296875 12.652344 9.296875 12.652344 C 9.21875 12.5625 9.128906 12.464844 9.039062 12.375 C 9.007812 12.339844 8.972656 12.308594 8.9375 12.269531 L 8.933594 12.269531 C 8.832031 12.167969 8.816406 12.03125 8.933594 11.890625 C 9.082031 11.707031 9.230469 11.800781 9.246094 11.816406 L 9.25 11.816406 C 9.316406 11.882812 9.390625 11.96875 9.449219 12.011719 C 9.609375 12.132812 9.699219 12.15625 9.699219 12.15625 L 10.457031 11.175781 L 10.199219 10.828125 C 10.199219 10.828125 10.195312 10.824219 10.1875 10.8125 C 10.160156 10.769531 10.050781 10.609375 10.257812 10.421875 C 10.484375 10.222656 10.722656 10.429688 10.769531 10.472656 Z M 10.769531 10.472656 "/>
<path style=" stroke:none;fill-rule:nonzero;fill:rgb(100%,82.745098%,71.372549%);fill-opacity:1;" d="M 10.742188 11.800781 C 10.609375 11.945312 10.402344 11.96875 10.277344 11.855469 L 9.703125 11.335938 C 9.578125 11.222656 9.582031 11.015625 9.71875 10.871094 C 9.851562 10.726562 10.058594 10.703125 10.183594 10.816406 L 10.757812 11.335938 C 10.878906 11.453125 10.875 11.65625 10.742188 11.800781 Z M 10.742188 11.800781 "/>
<path style=" stroke:none;fill-rule:nonzero;fill:rgb(100%,82.745098%,71.372549%);fill-opacity:1;" d="M 9.996094 11.886719 C 10.121094 11.703125 10.273438 11.476562 10.445312 11.285156 C 10.46875 11.253906 10.492188 11.230469 10.515625 11.203125 C 10.75 10.960938 11.054688 10.917969 11.4375 11.128906 C 11.449219 11.136719 11.460938 11.144531 11.476562 11.152344 C 11.496094 11.164062 11.519531 11.179688 11.546875 11.195312 C 11.582031 11.21875 11.613281 11.242188 11.648438 11.265625 C 11.761719 11.351562 11.847656 11.457031 11.898438 11.554688 C 12.109375 11.898438 12.050781 12.21875 12.050781 12.21875 C 12.050781 12.21875 11.804688 12.972656 11.445312 12.84375 C 11.085938 12.710938 10.898438 12.1875 10.898438 12.1875 L 10.992188 11.8125 C 10.886719 11.800781 10.789062 11.847656 10.664062 11.996094 C 10.621094 12.042969 10.574219 12.101562 10.519531 12.171875 C 10.511719 12.179688 10.445312 12.269531 10.4375 12.273438 C 10.355469 12.367188 10.261719 12.410156 10.148438 12.402344 C 10 12.394531 9.875 12.25 9.804688 12.195312 C 9.859375 12.128906 9.925781 11.984375 9.996094 11.886719 Z M 9.996094 11.886719 "/>
<path style=" stroke:none;fill-rule:nonzero;fill:rgb(100%,82.745098%,71.372549%);fill-opacity:1;" d="M 9.832031 12.753906 L 10.28125 12.378906 L 10.519531 12.105469 L 10.832031 11.828125 L 10.941406 11.878906 L 10.875 12.238281 L 11.105469 12.589844 L 11.253906 12.71875 L 10.492188 13.265625 Z M 9.832031 12.753906 "/>
<path style=" stroke:none;fill-rule:nonzero;fill:rgb(100%,82.745098%,71.372549%);fill-opacity:1;" d="M 9.863281 12.550781 C 9.855469 12.722656 9.6875 12.820312 9.699219 12.820312 C 9.746094 12.84375 9.980469 12.78125 10.238281 12.492188 C 10.4375 12.261719 10.628906 11.96875 10.863281 11.898438 C 10.78125 12.296875 10.957031 12.601562 11.277344 12.722656 C 11.03125 12.492188 10.832031 12.097656 11.058594 11.78125 C 10.875 11.667969 10.660156 11.855469 10.550781 11.988281 C 10.425781 12.140625 10.316406 12.378906 10.085938 12.347656 C 9.925781 12.328125 9.871094 12.226562 9.925781 12.074219 C 10.0625 11.703125 10.386719 11.324219 10.722656 11.113281 C 10.84375 11.035156 11.09375 11.015625 11.414062 11.082031 C 11.179688 10.894531 10.777344 10.953125 10.625 11.027344 C 10.492188 11.089844 10.527344 11.0625 10.410156 10.988281 C 10.351562 10.949219 10.292969 10.910156 10.238281 10.875 C 10.285156 10.953125 10.367188 11.046875 10.382812 11.140625 C 10.398438 11.253906 10.292969 11.355469 10.222656 11.4375 C 10.050781 11.644531 9.902344 11.464844 9.726562 11.351562 C 9.84375 11.496094 9.871094 11.539062 9.933594 11.640625 C 10.015625 11.777344 9.890625 11.890625 9.804688 12 C 9.621094 12.21875 9.25 11.769531 9.226562 11.796875 C 9.199219 11.832031 9.871094 12.359375 9.863281 12.550781 Z M 9.863281 12.550781 "/>
<path style=" stroke:none;fill-rule:nonzero;fill:rgb(81.176471%,34.117647%,0%);fill-opacity:1;" d="M 20.660156 3.605469 C 20.3125 2.667969 19.570312 2.371094 19.328125 2.296875 C 19.21875 1.957031 18.667969 0.667969 16.574219 0.976562 C 16.0625 1.050781 15.6875 1.289062 15.355469 1.5 C 15.214844 1.59375 15.078125 1.679688 14.953125 1.734375 C 14.851562 1.78125 14.671875 1.824219 14.523438 1.773438 C 14.1875 1.652344 14.308594 1.140625 14.308594 1.140625 C 14.308594 1.140625 13.070312 1.363281 13.582031 2.582031 C 13.164062 2.757812 12.964844 3.199219 12.886719 3.617188 C 12.773438 4.183594 13.039062 4.734375 13.574219 4.988281 C 13.574219 4.988281 13.484375 4.070312 14.789062 4.148438 C 15.195312 4.171875 15.617188 4.242188 15.996094 4.097656 C 16.140625 4.042969 16.277344 3.953125 16.417969 3.882812 L 16.46875 3.882812 C 16.960938 4.164062 16.285156 5.332031 16.824219 6.035156 C 16.929688 6.171875 17.023438 6.125 17.023438 6.125 L 17.25 5.800781 C 17.421875 5.578125 17.578125 5.386719 17.785156 5.4375 C 18.398438 5.585938 18.269531 6.695312 17.535156 6.929688 C 17.460938 6.953125 17.609375 8.199219 19.125 8.226562 C 19.90625 8.242188 20.195312 7.589844 20.195312 7.589844 C 20.195312 7.589844 19.859375 7.667969 19.792969 7.378906 C 19.757812 7.226562 19.894531 7.027344 20.144531 6.8125 C 20.859375 6.1875 20.617188 5.453125 20.519531 5.222656 C 20.625 5.015625 20.933594 4.339844 20.660156 3.605469 Z M 20.660156 3.605469 "/>
<path style=" stroke:none;fill-rule:nonzero;fill:rgb(81.176471%,34.117647%,0%);fill-opacity:1;" d="M 20.511719 5.226562 C 20.527344 5.199219 20.285156 5.785156 19.289062 5.671875 C 18.875 5.660156 18.285156 6.65625 18.875 7.332031 C 19.394531 7.929688 20.1875 7.589844 20.1875 7.589844 C 20.1875 7.589844 20.082031 7.621094 19.921875 7.5625 C 19.820312 7.523438 19.785156 7.386719 19.785156 7.382812 C 19.75 7.234375 19.890625 7.035156 20.140625 6.816406 C 20.855469 6.1875 20.613281 5.453125 20.511719 5.226562 Z M 20.511719 5.226562 "/>
<path style=" stroke:none;fill-rule:nonzero;fill:rgb(81.176471%,34.117647%,0%);fill-opacity:1;" d="M 20.660156 3.605469 C 20.476562 3.109375 20.128906 2.691406 19.671875 2.445312 C 19.601562 2.40625 19.441406 2.324219 19.324219 2.300781 C 19.375 2.519531 19.367188 2.753906 19.269531 2.988281 C 19.269531 3 19.15625 3.351562 18.847656 3.632812 C 19.0625 3.945312 19.167969 4.324219 19.265625 4.695312 C 19.351562 5.015625 19.429688 5.371094 19.289062 5.671875 C 19.476562 5.664062 19.785156 5.722656 20.121094 5.578125 C 20.445312 5.4375 20.621094 5.0625 20.707031 4.726562 C 20.800781 4.355469 20.792969 3.964844 20.660156 3.605469 Z M 20.660156 3.605469 "/>
<path style=" stroke:none;fill-rule:nonzero;fill:rgb(81.176471%,34.117647%,0%);fill-opacity:1;" d="M 19.269531 2.988281 C 19.519531 2.367188 19.191406 1.78125 18.683594 1.382812 C 18.085938 0.917969 17.292969 0.867188 16.574219 0.976562 C 16.0625 1.050781 15.6875 1.289062 15.355469 1.5 C 15.214844 1.59375 15.078125 1.679688 14.953125 1.734375 C 14.851562 1.78125 14.671875 1.824219 14.523438 1.773438 C 14.1875 1.652344 14.308594 1.140625 14.308594 1.140625 C 14.308594 1.140625 13.070312 1.363281 13.582031 2.582031 C 13.164062 2.757812 12.964844 3.199219 12.886719 3.617188 C 12.773438 4.183594 13.039062 4.734375 13.574219 4.988281 C 13.574219 4.988281 13.484375 4.070312 14.789062 4.148438 C 15.195312 4.171875 15.617188 4.242188 15.996094 4.097656 C 16.332031 3.96875 16.449219 3.789062 16.820312 3.816406 C 17.222656 3.847656 17.757812 4.011719 18.167969 3.953125 C 19.007812 3.839844 19.265625 3 19.269531 2.988281 Z M 19.269531 2.988281 "/>
<path style=" stroke:none;fill-rule:nonzero;fill:url(#radial0);" d="M 18.875 7.332031 C 18.609375 7.035156 18.546875 6.558594 18.128906 6.292969 C 18.046875 6.570312 17.84375 6.832031 17.53125 6.929688 C 17.460938 6.953125 17.605469 8.199219 19.121094 8.226562 C 19.902344 8.242188 20.191406 7.589844 20.191406 7.589844 C 20.191406 7.589844 19.40625 7.925781 18.875 7.332031 Z M 18.875 7.332031 "/>
</g>
</svg>
